<?xml version="1.0" encoding="iso-8859-1"?>
<!-- Uploaded to: SVG Repo, www.svgrepo.com, Generator: SVG Repo Mixer Tools -->
<svg fill="#03045E" height="800px" width="800px" version="1.1" id="Layer_1" xmlns="http://www.w3.org/2000/svg" xmlns:xlink="http://www.w3.org/1999/xlink" 
	 viewBox="0 0 496.004 496.004" xml:space="preserve">
<g>
	<g>
		<path d="M391.398,180.752v-37.368C391.398,64.324,327.074,0,248.006,0S104.614,64.324,104.614,143.388v37.368
			c-38.752,9.236-65.884,43.352-65.884,83.916v144.972c0,47.648,39.4,86.36,87.044,86.36h245.724
			c47.648,0,85.776-38.712,85.776-86.36V264.672C457.274,224.1,430.15,189.988,391.398,180.752z M263.506,344.748v55.108
			c0,2.132-0.332,3.136-2.476,3.136h-20.808c-2.14,0-3.84-1.068-3.84-3.2v-54.82c-15.5-5.364-21.54-17.468-21.54-31.548
			c0-19.02,15.016-34.548,34.028-34.492c15.512,0.044,33.72,12.644,33.72,30.712C282.59,331.6,271.258,339.964,263.506,344.748z
			 M364.266,178.22h-232.52v-34.26c0-64.104,52.16-116.264,116.26-116.264c64.108,0,116.26,52.16,116.26,116.26V178.22z"/>
	</g>
</g>
</svg>